<svg width="66" height="66" viewBox="0 0 66 66" fill="none" xmlns="http://www.w3.org/2000/svg">
<path d="M65.3625 37.6147L63.8644 32.6062C63.4091 31.081 62.396 29.8254 61.0157 29.0704C59.6354 28.3153 58.042 28.1584 56.544 28.6219L56.2208 28.7189C55.5601 27.7323 54.6786 26.9173 53.6143 26.3416C51.8816 25.3999 49.8991 25.2054 48.0194 25.7811L36.7783 29.257C35.1998 29.743 33.8999 30.7295 32.997 31.9929C32.094 30.7295 30.7941 29.743 29.2084 29.257L17.9673 25.7884C16.0948 25.2054 14.105 25.4072 12.3796 26.3417C11.3148 26.9173 10.4338 27.7318 9.77311 28.7189L9.44994 28.622C7.95182 28.1584 6.35902 28.3154 4.97825 29.0704C3.59026 29.8254 2.57726 31.081 2.1219 32.6062L0.631506 37.6147C0.205892 39.0576 0 40.515 0 41.9432C0 46.0548 1.68143 49.9719 4.5522 52.7751L3.24514 57.1709C3.113 57.6042 3.0541 58.0454 3.0541 58.4714C3.0541 60.4001 4.28024 62.1793 6.18186 62.7623L16.0134 65.8049C16.439 65.9322 16.8723 65.9994 17.2985 65.9994C18.0181 65.9994 18.7228 65.8201 19.3692 65.4686C20.4119 64.9002 21.1679 63.9586 21.5132 62.815L23.0624 57.6048C23.3339 57.4927 23.6058 57.3582 23.8701 57.2163C26.2931 55.9007 28.0628 53.6956 28.8627 51.0269L30.3091 46.1682C31.4983 45.0841 32.4161 43.7309 32.9964 42.1912C33.5767 43.7309 34.4946 45.0841 35.6838 46.1682L37.1301 51.0269C38.0479 54.0919 40.2288 56.4243 42.9233 57.5976L44.4798 62.8156C45.0524 64.7518 46.8076 66 48.6945 66C49.1201 66 49.5462 65.9327 49.9718 65.8055L59.8106 62.7629C62.1307 62.0454 63.4526 59.5409 62.7474 57.1715L61.4403 52.7836C62.5563 51.7073 63.511 50.4287 64.2598 49.0011C66.1041 45.4787 66.5006 41.4344 65.3625 37.6149L65.3625 37.6147ZM18.7011 61.9469C18.591 62.3281 18.3339 62.642 17.9887 62.8292C17.6435 63.0159 17.2471 63.0607 16.8727 62.9413L7.03392 59.9066C6.25542 59.6673 5.82263 58.8303 6.05721 58.0378L7.04109 54.726C8.07618 55.369 9.20712 55.892 10.4189 56.2658L16.0431 58.0001C17.027 58.3067 18.0329 58.4559 19.0388 58.4559C19.2739 58.4559 19.5162 58.4486 19.7512 58.4261L18.7011 61.9469ZM26.0508 50.151C25.6764 51.4144 25.0009 52.5283 24.083 53.3954C23.6057 53.859 23.0771 54.2553 22.4897 54.5765C21.9171 54.8904 21.3076 55.1224 20.6909 55.2715C19.45 55.563 18.1506 55.5255 16.8948 55.137L11.2706 53.4027C10.0444 53.0216 8.92071 52.461 7.92973 51.7429C7.0191 51.0927 6.21907 50.3225 5.54356 49.4554C3.1865 46.4727 2.2759 42.406 3.44362 38.4817L4.93401 33.4732C5.16142 32.7109 5.66846 32.083 6.35832 31.7091C7.05589 31.328 7.84871 31.2534 8.59751 31.4849L7.95883 33.6301C7.65767 34.6391 7.51836 35.6559 7.51836 36.6648C7.51836 41.1503 10.3747 45.3139 14.8096 46.6816L20.4338 48.4159C21.4176 48.7225 22.4236 48.8717 23.4295 48.8717C24.5015 48.8717 25.5663 48.6996 26.5865 48.356L26.0508 50.151ZM31.4475 36.9794C31.4183 37.2188 31.3743 37.4503 31.3005 37.6896C31.3005 37.6969 31.2934 37.7047 31.2934 37.712L30.4416 40.5752C30.4416 40.5825 30.4345 40.5903 30.4345 40.5976C29.9643 42.1525 29.0322 43.4833 27.7619 44.4177C27.4828 44.6419 27.1816 44.8286 26.8733 45.0007C25.1478 45.9351 23.1652 46.1369 21.2856 45.5539L15.6614 43.8196C11.7919 42.6234 9.59623 38.4446 10.7712 34.4979L11.4098 32.3527L11.6229 31.6352C11.6961 31.3959 11.7842 31.1643 11.902 30.9401C12.1294 30.4614 12.4454 30.0281 12.827 29.6694C13.1061 29.4003 13.4145 29.1683 13.7597 28.9816C14.7948 28.4211 15.9917 28.3011 17.1154 28.6453L28.3565 32.1212C29.9207 32.5999 31.0218 33.8852 31.367 35.3953C31.4843 35.9104 31.5135 36.4413 31.4475 36.9794L31.4475 36.9794ZM39.1132 45.0007C38.8049 44.8286 38.5109 44.642 38.2323 44.4251C36.9549 43.4833 36.0151 42.1375 35.5521 40.5753L34.7004 37.7121C34.6272 37.4654 34.5754 37.2188 34.5462 36.9721C34.473 36.434 34.5093 35.8959 34.6271 35.3875C34.9723 33.8847 36.0812 32.5993 37.63 32.1206L48.8787 28.6447C49.2972 28.5175 49.7305 28.4502 50.1638 28.4502C50.8762 28.4502 51.581 28.6296 52.2345 28.9811C52.5797 29.1677 52.8952 29.3998 53.1672 29.6688C53.5487 30.0276 53.8647 30.4614 54.0921 30.9396C54.2094 31.1638 54.2975 31.3953 54.3713 31.6347L54.5843 32.3522L55.223 34.4973C56.3979 38.444 54.2022 42.6229 50.3328 43.8191L44.7086 45.5534C42.8284 46.1368 40.8458 45.935 39.1131 45.0006L39.1132 45.0007ZM58.9602 59.906L49.1214 62.9408C48.3506 63.1801 47.5281 62.7317 47.293 61.9464L46.2359 58.4177C46.4781 58.4402 46.728 58.4475 46.9703 58.4475C47.9542 58.4475 48.9601 58.3056 49.9511 57.999L55.5681 56.2647C56.7722 55.8909 57.9031 55.3752 58.953 54.7323L59.9368 58.0367C60.1719 58.8293 59.7309 59.6667 58.9601 59.906L58.9602 59.906ZM61.6695 47.5939C61.3172 48.2665 60.9059 48.8943 60.4506 49.47C59.7602 50.3445 58.9602 51.1074 58.0644 51.7424C57.0585 52.4677 55.9276 53.0283 54.7163 53.4022L49.0994 55.1365C47.8143 55.5328 46.5149 55.5552 45.296 55.2559C44.0258 54.9571 42.8509 54.3142 41.9111 53.3871C41.0153 52.535 40.3178 51.4359 39.9362 50.1505L39.4 48.3563C40.4279 48.6999 41.4927 48.872 42.5647 48.872C43.5635 48.872 44.5766 48.7223 45.5605 48.4163L51.1846 46.682C56.6034 45.0076 59.68 39.1467 58.0349 33.6299L57.3962 31.4847C58.145 31.2532 58.9384 31.3278 59.6282 31.7089C60.3258 32.0828 60.8323 32.7106 61.0603 33.473L62.5506 38.4815C63.4613 41.5392 63.1458 44.7763 61.6697 47.5942L61.6695 47.5939Z" fill="#8B8B8B"/>
<path d="M10.7512 14.6553C11.6562 16.2001 11.8405 17.9863 11.2666 19.6888C11.0017 20.4725 11.4139 21.3314 12.1793 21.6027C12.341 21.6552 12.4955 21.6857 12.6577 21.6857C13.2685 21.6857 13.8424 21.2941 14.0488 20.6686C14.7629 18.5361 14.6966 16.3206 13.865 14.2937C16.3891 15.3786 19.2227 15.2057 21.6585 13.766C24.0942 12.3268 25.662 9.90037 26.0002 7.11976C27.6563 9.35794 30.1952 10.6542 33.0061 10.6542C35.817 10.6542 38.356 9.35797 40.0119 7.11976C40.3579 9.90037 41.9179 12.3267 44.3537 13.766C46.7894 15.2051 49.6231 15.3786 52.1471 14.2937C51.3155 16.3132 51.2493 18.5361 51.9633 20.6686C52.2282 21.4523 53.067 21.8744 53.8324 21.6032C54.5978 21.332 55.01 20.4731 54.7451 19.6893C54.1712 17.9863 54.355 16.2001 55.2605 14.6558L57.4242 10.9559C57.7702 10.3604 57.6819 9.60718 57.2035 9.11724C56.7251 8.62735 55.9894 8.53694 55.4079 8.89121L51.7945 11.1068C49.9327 12.2521 47.7027 12.2674 45.8266 11.1594C43.9499 10.0518 42.8461 8.06226 42.8832 5.83941L42.9494 1.52923C42.9566 0.835922 42.5079 0.225653 41.8601 0.0521338C41.2123 -0.128692 40.5209 0.172504 40.1897 0.775409L38.1442 4.54317C37.0918 6.48747 35.1637 7.64027 33 7.64027C30.8363 7.64027 28.9082 6.47966 27.8559 4.54317L25.8103 0.775409C25.4792 0.1725 24.7949 -0.128692 24.1399 0.0521338C23.4849 0.232959 23.0363 0.843215 23.0506 1.52923L23.1168 5.83941C23.1538 8.06239 22.0496 10.0519 20.1735 11.1594C18.2968 12.2748 16.0596 12.2522 14.2055 11.1068L10.5922 8.89121C10.0183 8.53694 9.27503 8.62735 8.79655 9.11724C8.31813 9.60713 8.22984 10.3683 8.57582 10.9559L10.7512 14.6553Z" fill="#8B8B8B"/>
</svg>
