<svg width="62" height="66" viewBox="0 0 62 66" fill="none" xmlns="http://www.w3.org/2000/svg">
<path d="M57.7635 57.3943C56.6808 58.0631 55.5146 58.5994 54.273 58.9882L48.4808 60.7921C47.4588 61.111 46.4216 61.2585 45.407 61.2585C45.1572 61.2585 44.8995 61.2509 44.6497 61.2276L45.7398 64.8977C45.9822 65.7139 46.8298 66.1803 47.6252 65.9319L57.7709 62.7755C58.5657 62.5266 59.0199 61.6561 58.778 60.8318L57.7635 57.3943Z" fill="#8B8B8B"/>
<path d="M61.4735 40.4905L59.9366 35.2812C59.7021 34.4883 59.1793 33.8353 58.4599 33.4464C57.748 33.0499 56.9305 32.9724 56.1583 33.2132L56.8169 35.4444C58.5128 41.1824 55.3402 47.2778 49.753 49.0198L43.9533 50.8236C42.9388 51.1425 41.8942 51.2976 40.8642 51.2976C39.7587 51.2976 38.6607 51.1186 37.6007 50.7612L38.1537 52.6274C38.5471 53.9648 39.2665 55.1075 40.1901 55.9937C40.6977 56.5068 41.2728 56.9266 41.894 57.2531H41.9014C42.4617 57.5638 43.0596 57.7895 43.6807 57.9375C44.9377 58.2483 46.2776 58.225 47.6027 57.8133L53.3949 56.0095C54.644 55.6206 55.8101 55.0376 56.8474 54.2831C57.2942 53.9642 57.7183 53.6144 58.1118 53.2337C58.5433 52.8296 58.9373 52.3941 59.308 51.9196C59.7776 51.3209 60.2017 50.6679 60.565 49.9682C62.0872 47.0368 62.4125 43.67 61.4735 40.4901L61.4735 40.4905Z" fill="#8B8B8B"/>
<path d="M43.0748 47.8463L48.8745 46.0424C52.8647 44.7983 55.1288 40.4519 53.9172 36.3469L53.2586 34.1157L53.0389 33.3695C52.9634 33.1205 52.8726 32.8797 52.7511 32.6465C52.5166 32.1487 52.1907 31.698 51.7973 31.3248C51.5173 31.045 51.1915 30.8036 50.8355 30.6095C50.1616 30.2439 49.4349 30.0574 48.7002 30.0574C48.2534 30.0574 47.8066 30.1273 47.3751 30.2597L35.7754 33.8749C34.1778 34.3728 33.0344 35.7097 32.6789 37.2728C32.558 37.8016 32.5199 38.3613 32.5955 38.921L32.5273 38.9443L33.6328 42.6686C34.1097 44.2934 35.0788 45.6932 36.3965 46.6727C36.6843 46.8983 36.987 47.0925 37.3049 47.2715C39.0922 48.2428 41.1366 48.4527 43.0749 47.8464L43.0748 47.8463Z" fill="#8B8B8B"/>
<path d="M13.5161 60.7918L7.71645 58.988C6.46738 58.5991 5.30128 58.0551 4.23329 57.3864L3.21872 60.8309C2.9763 61.6553 3.42311 62.5258 4.22589 62.7747L14.3716 65.9311C14.7577 66.0553 15.1664 66.0087 15.5224 65.8145C15.8784 65.6204 16.1435 65.2933 16.2571 64.8969L17.3398 61.2349C17.0973 61.2582 16.8475 61.2658 16.6051 61.2658C15.5678 61.2664 14.5305 61.1107 13.5159 60.7918L13.5161 60.7918Z" fill="#8B8B8B"/>
<path d="M18.0428 50.8244L12.2431 49.0206C7.66995 47.598 4.7245 43.2669 4.7245 38.6021C4.7245 37.5527 4.86815 36.495 5.17871 35.4457L5.83731 33.2145C5.06516 32.9737 4.24702 33.0513 3.52827 33.4477C2.81633 33.8366 2.29399 34.4896 2.05953 35.2825L0.522653 40.4918C-0.680987 44.5735 0.257528 48.8032 2.6881 51.9055C3.04407 52.3719 3.44547 52.815 3.87696 53.2348C4.27836 53.6079 4.69454 53.9659 5.14873 54.2842C6.1707 55.0305 7.32946 55.6135 8.59377 56.0106L14.3934 57.8144C15.6879 58.2185 17.0283 58.2575 18.308 57.9543C18.9212 57.8068 19.5196 57.5736 20.0947 57.2623C20.1175 57.2547 20.1402 57.2466 20.1629 57.2314C20.7687 56.8973 21.3137 56.4851 21.8059 56.003C22.7523 55.101 23.4489 53.9426 23.8351 52.6284L24.388 50.7623C23.3354 51.1197 22.238 51.2987 21.1325 51.2987C20.0947 51.2992 19.0574 51.1435 18.0428 50.8246L18.0428 50.8244Z" fill="#8B8B8B"/>
<path d="M29.3176 37.2805C28.9616 35.7099 27.8261 34.3725 26.2131 33.8751L14.6214 30.2598C13.4632 29.9024 12.229 30.0266 11.161 30.6097C10.805 30.8038 10.4871 31.0452 10.1992 31.325C9.80574 31.6981 9.47989 32.1494 9.24539 32.6467C9.12444 32.8799 9.0336 33.1207 8.95755 33.3696L8.73784 34.1159L8.07924 36.3471C6.86768 40.4521 9.13184 44.7985 13.122 46.0426L18.9216 47.8464C20.8599 48.4528 22.9044 48.2429 24.6837 47.271C25.0016 47.092 25.3122 46.8979 25.6 46.6647C26.9098 45.6928 27.8716 44.3087 28.3559 42.6915C28.3559 42.6839 28.3633 42.6757 28.3633 42.6681L29.2416 39.6901C29.2416 39.6826 29.249 39.6744 29.249 39.6668C29.249 39.6592 29.2564 39.6511 29.2564 39.6435L29.4608 38.9439L29.4 38.9281C29.4692 38.369 29.4391 37.8169 29.3177 37.2805L29.3176 37.2805Z" fill="#8B8B8B"/>
<path d="M38.2061 7.34611C38.562 10.2151 40.1671 12.7186 42.6731 14.2036C45.1792 15.6885 48.0946 15.8675 50.6915 14.7481C49.8359 16.8318 49.7678 19.1254 50.5024 21.3257C50.7749 22.1343 51.6379 22.5698 52.4254 22.29C53.2129 22.0101 53.637 21.124 53.3645 20.3153C52.774 18.5581 52.9631 16.7151 53.8947 15.1218L56.1209 11.3042C56.4769 10.6897 56.386 9.91261 55.8938 9.40709C55.4016 8.90163 54.6447 8.80834 54.0463 9.17388L50.3287 11.4599C48.4131 12.6417 46.1188 12.6574 44.1885 11.5141C42.2576 10.3714 41.1221 8.31857 41.1602 6.02506L41.2283 1.57785C41.2357 0.862498 40.7741 0.232827 40.1076 0.0537913C39.4411 -0.132783 38.7297 0.177989 38.389 0.800061L36.2844 4.6876C35.2017 6.69372 33.2179 7.88317 30.9918 7.88317C28.7656 7.88317 26.7819 6.68566 25.6991 4.6876L23.5945 0.800061C23.2539 0.177984 22.5499 -0.132783 21.8759 0.0537913C21.202 0.240366 20.7404 0.870023 20.7552 1.57785L20.8233 6.02506C20.8614 8.31871 19.7253 10.3715 17.795 11.5141C15.8641 12.665 13.5624 12.6417 11.6548 11.4599L7.93718 9.17388C7.34671 8.80834 6.58202 8.90163 6.08974 9.40709C5.59751 9.91256 5.50666 10.6979 5.86263 11.3042L8.08879 15.1218C9.01991 16.7157 9.20952 18.5586 8.61905 20.3153C8.34653 21.1239 8.77063 22.0101 9.55809 22.29C9.72446 22.3442 9.88343 22.3757 10.0503 22.3757C10.6788 22.3757 11.2693 21.9716 11.4816 21.3262C12.2163 19.1259 12.1481 16.84 11.2925 14.7487C13.8894 15.8681 16.8049 15.6896 19.3109 14.2041C21.8169 12.7192 23.4299 10.2157 23.7779 7.34665C25.4818 9.65599 28.094 10.9934 30.986 10.9934C33.8755 10.9924 36.5025 9.64734 38.2063 7.3461L38.2061 7.34611Z" fill="#8B8B8B"/>
</svg>
