<?xml version="1.0" encoding="utf-8"?>
<!-- Generator: Adobe Illustrator 27.0.0, SVG Export Plug-In . SVG Version: 6.00 Build 0)  -->
<svg version="1.1" id="Layer_1" xmlns="http://www.w3.org/2000/svg" xmlns:xlink="http://www.w3.org/1999/xlink" x="0px" y="0px"
	 viewBox="0 0 700 700" style="enable-background:new 0 0 700 700;" xml:space="preserve">
<g>
	<path d="M382.8,450.5c-12.5,3.5-25.6,5-39.2,4.3l-2.5,0c-23.2,0-46-6.1-65.9-17.7c-4.2-2.4-9.5-1-12,3.2c-2.4,4.2-1,9.5,3.2,12
		c4.7,2.8,9.6,5.2,14.6,7.4c-24.4,10.3-44,29.5-54.5,54.2c-30.6-12.1-55.6-34.4-71.2-63.6c18.1,0.9,36.4-3,52.7-11.2
		c4.3-2.2,6.1-7.4,3.9-11.7c-2.2-4.3-7.4-6.1-11.7-3.9c-18,9-38.7,11.7-58.3,7.6c-3.3-0.7-6.7,0.6-8.7,3.2c-2,2.7-2.4,6.3-0.9,9.3
		l5.9,11.6c18.9,37.4,51.2,65.2,90.8,78.2c0.9,0.3,1.8,0.4,2.7,0.4c3.7,0,7.1-2.3,8.3-6c9.2-28,32.7-49.6,61.2-56.6l8.8-2.2
		c5.2,1.1,10.5,1.9,15.8,2.5c0.1,0,0.1,0,0.2,0c5.1,0.5,10.1,0.9,15.3,0.9l2.1,0c15.1,0.7,30-0.9,44.3-5c4.7-1.3,7.4-6.1,6.1-10.8
		C392.3,451.9,387.4,449.2,382.8,450.5L382.8,450.5z"/>
	<path d="M472.5,262.5c0-14.5-11.8-26.2-26.2-26.2S420,248,420,262.5s11.8,26.2,26.2,26.2S472.5,277,472.5,262.5z M437.5,262.5
		c0-4.8,3.9-8.8,8.8-8.8s8.8,3.9,8.8,8.8s-3.9,8.8-8.8,8.8S437.5,267.3,437.5,262.5z"/>
	<path d="M341.2,341.2c0,4.8,3.9,8.8,8.8,8.8s8.8-3.9,8.8-8.8c0-24.1-19.6-43.8-43.8-43.8c-4.8,0-8.8,3.9-8.8,8.8s3.9,8.8,8.8,8.8
		C329.5,315,341.2,326.8,341.2,341.2z"/>
	<path d="M611.7,160c-0.9-4.7-5.5-7.8-10.2-7l-17.2,3.3c-9.3,1.8-17.5,6.5-23.8,13.3c-1.6-7.9-3.7-15.7-6.4-23.3l9.2-5.5
		c10-6,17.1-15.5,20-26.8c2.9-11.3,1.2-23.1-4.8-33.1c-1.2-2-3.1-3.4-5.4-4c-2.3-0.6-4.6-0.2-6.6,1l-15,8.9
		c-8.4,5-14.5,12.5-18.1,21.4c-6.4-7.8-13.8-14.8-22-20.6c15.8-15.2,18.1-40.1,4.5-57.9c-1.4-1.8-3.5-3.1-5.8-3.4
		c-2.3-0.3-4.6,0.3-6.5,1.7l-13.9,10.6c-9.7,7.5-15.4,18.2-16.8,29.5C462,61,455,48.7,455,35c0-4.8-3.9-8.8-8.8-8.8
		s-8.8,3.9-8.8,8.8c0,14.5,5.6,28,14.8,38.3c-6.4,1.3-12.6,3.8-18.1,8l-13.9,10.6c-3.8,2.9-4.6,8.4-1.6,12.3
		c8.6,11.2,21.6,17.1,34.8,17.1c9.3,0,18.6-2.9,26.5-9h0l13.9-10.6l3.2-2.5c7.7,4.9,14.7,10.8,20.7,17.6c-9.2-0.9-18.4,1-26.5,5.8
		l-15,8.9c-2,1.2-3.4,3.1-4,5.4c-0.6,2.2-0.2,4.6,1,6.6c6,10,15.5,17.2,26.8,20c3.6,0.9,7.2,1.4,10.9,1.4c7.8,0,15.4-2.1,22.3-6.2
		l5.5-3.3c1.6,5.1,3,10.3,4.1,15.5c-7.8-3.5-16.5-4.6-25.2-3.1l-17.2,3c-4.8,0.8-8,5.3-7.1,10.1c2,11.5,8.3,21.6,17.9,28.3
		c7.5,5.3,16.2,8,25.2,8c2.5,0,5-0.2,7.5-0.6l2.6-0.4c-1.2,20.4-6,40.4-14.2,58.9c-0.7-1-1.5-2-2.7-2.7l-5.3-3.2
		c-15.8-9.5-29.7-23.8-42.5-43.8c-11.1-17.3-30.5-26.5-50.8-23.9c-16.8,2-32.1,12.8-40.8,29c-8.8,16.4-20.4,30.9-34.4,43.3
		c-11.9-7.2-25.8-11.5-40.7-11.5h-96.2c-4.8,0-8.8,3.9-8.8,8.8s3.9,8.8,8.8,8.8H315c33.8,0,61.2,27.5,61.2,61.2
		s-27.5,61.2-61.2,61.2h-78.8c-11.4,0-21-7.3-24.6-17.5h77.1c4.8,0,8.8-3.9,8.8-8.8s-3.9-8.8-8.8-8.8h-87.5
		c-21.1,0-38.8-15.1-42.9-35H280c4.8,0,8.8-3.9,8.8-8.8s-3.9-8.8-8.8-8.8H148.7c-21.1,0-38.8-15.1-42.9-35h77.9
		c4.8,0,8.8-3.9,8.8-8.8s-3.9-8.8-8.8-8.8H96.2c-4.8,0-8.8,3.9-8.8,8.8c0,31,23.1,56.7,53,60.7c3.7,27.3,25.4,49,52.7,52.5
		c3.9,20.2,21.7,35.5,43,35.5H315c43.4,0,78.8-35.3,78.8-78.8c0-22.1-9.2-42.1-23.9-56.4c14.5-13.3,26.6-28.7,35.8-45.9
		c6-11.1,16.3-18.5,27.5-19.9c13.5-1.7,26.6,4.5,34,16c11.6,18.2,24.2,32.3,38.3,42.7c-19.8,10.6-32.8,31.5-32.8,54.8
		c0,43.5-22.3,82.8-59.6,105.2c-4.1,2.5-5.5,7.9-3,12c1.6,2.7,4.5,4.2,7.5,4.2c1.5,0,3.1-0.4,4.5-1.2
		c42.7-25.6,68.1-70.5,68.1-120.2c0-21,14.9-39.3,35.4-43.6c-2.2,3.9-4.5,7.7-6.9,11.4l-18.2,27.3c-2.7,4-1.6,9.4,2.4,12.1
		c1.5,1,3.2,1.5,4.9,1.5c2.8,0,5.6-1.4,7.3-3.9L533,310c19.1-28.7,29.8-62,31.1-96.4l12.9-2.4C600.6,206.7,616.2,183.7,611.7,160
		L611.7,160z M500.5,52.6l5.8-4.4c3.3,10.3,0,22-9,28.9h0l-5.8,4.4C488.1,71.3,491.4,59.5,500.5,52.6L500.5,52.6z M469.4,98.4
		c-9.1,6.9-21.2,7.1-30.3,1.2l5.8-4.4c9.1-6.9,21.2-7,30.3-1.2L469.4,98.4z M560.5,101.8l6.2-3.7c2.1,10.6-2.5,21.9-12.3,27.7
		l-6.2,3.7C546.1,118.9,550.7,107.7,560.5,101.8z M524.3,143.7c-6,3.6-13.1,4.6-19.9,2.9c-3.9-1-7.4-2.8-10.4-5.3l6.2-3.7
		c9.8-5.8,21.9-4.6,30.2,2.4L524.3,143.7z M540.9,199.4c-6.9,1.2-13.9-0.4-19.6-4.4c-3.3-2.3-5.9-5.2-7.8-8.6l7.1-1.2
		c11.2-2,22.1,3.6,27.4,13.1L540.9,199.4z M590.4,183c-3.9,5.8-9.9,9.7-16.8,11l-7.1,1.4c0.6-3.8,2-7.5,4.3-10.8
		c3.9-5.8,9.9-9.7,16.8-11l7.1-1.4C594.1,176,592.7,179.7,590.4,183L590.4,183z"/>
</g>
</svg>
