<?xml version="1.0" encoding="utf-8"?>
<!-- Generator: Adobe Illustrator 27.0.0, SVG Export Plug-In . SVG Version: 6.00 Build 0)  -->
<svg version="1.1" id="Layer_1" xmlns="http://www.w3.org/2000/svg" xmlns:xlink="http://www.w3.org/1999/xlink" x="0px" y="0px"
	 viewBox="0 0 700 700" style="enable-background:new 0 0 700 700;" xml:space="preserve">
<g>
	<path d="M611.7,160c-0.9-4.7-5.4-7.9-10.2-7l-17.1,3.3c-9.4,1.8-17.5,6.5-23.8,13.3c-1.7-7.9-3.8-15.7-6.4-23.3l9.3-5.5
		c10-5.9,17.1-15.5,19.9-26.9c2.9-11.3,1.2-23.1-4.8-33.2c-1.1-1.9-3.1-3.4-5.3-3.9c-2.3-0.6-4.6-0.3-6.6,1l-15,8.9
		c-8.4,5-14.6,12.5-18.1,21.4c-6.4-7.8-13.7-14.8-22.1-20.6c15.8-15.2,18.2-40.1,4.6-57.9c-1.4-1.8-3.5-3.1-5.8-3.3
		c-2.4-0.3-4.6,0.3-6.5,1.8l-13.9,10.6c-9.7,7.4-15.4,18.2-16.8,29.6C462,61,455,48.7,455,35c0-4.8-3.9-8.8-8.8-8.8
		s-8.8,3.9-8.8,8.8c0,14.5,5.5,28,14.8,38.2c-6.4,1.3-12.5,3.9-18,8.1l-13.9,10.6c-3.9,3-4.6,8.5-1.7,12.3
		c8.7,11.2,21.7,17.1,34.8,17.1c9.3,0,18.6-2.9,26.5-9h0.1l13.8-10.6l3.2-2.5c7.7,4.9,14.7,10.9,20.7,17.6
		c-9.2-0.9-18.5,1.1-26.5,5.9l-15.1,8.9c-2,1.2-3.4,3.1-4,5.4c-0.5,2.2-0.2,4.6,1,6.6c6,10.1,15.6,17.2,26.9,20
		c3.6,1,7.3,1.4,10.9,1.4c7.8,0,15.4-2.1,22.3-6.2l5.4-3.2c1.7,5.2,3,10.3,4.1,15.5c-7.8-3.5-16.4-4.6-25.1-3.1l-17.3,3
		c-4.7,0.8-7.9,5.3-7.1,10.1c1.9,11.6,8.3,21.6,17.9,28.4c7.4,5.2,16.2,8.1,25.1,8.1c2.5,0,5.1-0.3,7.5-0.7l2.6-0.4
		c-1.2,20.5-6,40.3-14.3,58.9c-0.6-1.1-1.5-1.9-2.7-2.6l-5.2-3.1c-15.8-9.4-29.8-23.8-42.5-43.8c-11-17.2-30.4-26.3-50.8-24
		c-16.8,2.1-32,12.9-40.8,29.1c-8.8,16.4-20.4,30.9-34.3,43.4c-11.9-7.4-25.9-11.6-40.9-11.6H96.2c-4.8,0-8.8,3.9-8.8,8.8
		c0,31,23.1,56.7,53,60.7c3.7,27.3,25.4,48.9,52.8,52.5c2.4,12.8,10.4,23.6,21.4,29.8c-20.6,15.9-47,22.1-72.9,16.6
		c-3.3-0.7-6.7,0.6-8.8,3.2c-2.1,2.6-2.4,6.3-0.9,9.3l5.9,11.6c18.8,37.4,51,65.1,90.7,78.2c1,0.3,1.8,0.4,2.8,0.4
		c1.3,0,2.7-0.4,3.9-1c2-1.1,3.6-2.8,4.4-5.1c9.3-28.4,32.2-49.4,61.2-56.5l8.9-2.2c10.5,2.2,33.2,3.3,33.2,3.3
		c38.7,1.8,75.4-11.8,103.3-38.5c28-26.7,43.4-62.7,43.4-101.3c0-21,14.9-39.3,35.4-43.7c-2.2,3.9-4.6,7.8-7,11.5l-18.2,27.4
		c-2.7,4-1.6,9.4,2.4,12.1c1.5,1.1,3.1,1.5,4.8,1.5c2.8,0,5.6-1.4,7.3-3.9L533,310c19.2-28.7,29.8-61.9,31.1-96.4l12.9-2.4
		C600.6,206.7,616.3,183.8,611.7,160L611.7,160z M315,297.5c24.1,0,43.8,19.6,43.8,43.8c0,4.8-3.9,8.8-8.8,8.8s-8.8-3.9-8.8-8.8
		c0-14.4-11.8-26.2-26.2-26.2c-4.8,0-8.8-3.9-8.8-8.8S310.2,297.5,315,297.5z M155.9,328c-3.2-5.8,1-13,7.7-13H280
		c4.8,0,8.8,3.9,8.8,8.8s-3.9,8.8-8.8,8.8H163.5C160.4,332.5,157.4,330.8,155.9,328L155.9,328z M209,380.7
		c-3.4-5.8,0.8-13.2,7.5-13.2h72.2c4.8,0,8.8,3.9,8.8,8.8s-3.9,8.8-8.8,8.8h-72.2C213.5,385,210.6,383.4,209,380.7L209,380.7z
		 M315,420h-78.8c-4.8,0-8.8-3.9-8.8-8.8s3.9-8.8,8.8-8.8H315c33.8,0,61.2-27.5,61.2-61.2c0-16.4-6.4-31.7-17.9-43.3
		c-3.4-3.4-3.4-9,0-12.4c3.4-3.4,9-3.4,12.4,0c14.9,14.9,23.1,34.7,23.1,55.7C393.7,384.7,358.4,420,315,420L315,420z M446.2,280
		c-9.7,0-17.5-7.8-17.5-17.5s7.8-17.5,17.5-17.5s17.5,7.8,17.5,17.5S455.9,280,446.2,280z"/>
</g>
</svg>
